<svg width="24" height="24" viewBox="0 0 24 24" fill="none" xmlns="http://www.w3.org/2000/svg">
<path d="M7.5 19.796C7.45869 19.7721 7.41759 19.7478 7.3767 19.7233M7.3767 19.7233C4.75474 18.1504 3 15.2801 3 12C3 7.02944 7.02944 3 12 3C16.1739 3 19.6842 5.84132 20.7022 9.69529C20.8445 10.2339 20.978 10.5 20.978 11.3654C20.7977 12.8499 19.5332 14 18 14C17.4835 14 16.9974 13.8695 16.573 13.6396C16.1011 13.33 15.5366 13.15 14.93 13.15C13.2731 13.15 11.93 14.4932 11.93 16.15C11.93 16.3219 11.9228 16.4905 11.9505 16.6545C11.983 16.8314 12 17.0137 12 17.2C12 18.8569 10.6569 20.2 9 20.2C8.40187 20.2 7.84463 20.025 7.3767 19.7233ZM8.643 15.1127C8.5358 15.5128 8.12454 15.7502 7.72444 15.643C7.32434 15.5358 7.08691 15.1245 7.19411 14.7244C7.30132 14.3243 7.71257 14.0869 8.11267 14.1941C8.51277 14.3013 8.75021 14.7126 8.643 15.1127ZM8.643 10.1127C8.5358 10.5128 8.12454 10.7502 7.72444 10.643C7.32434 10.5358 7.08691 10.1245 7.19411 9.72444C7.30132 9.32434 7.71257 9.08691 8.11267 9.19411C8.51277 9.30132 8.75021 9.71257 8.643 10.1127ZM13.643 7.11267C13.5358 7.51277 13.1245 7.75021 12.7244 7.643C12.3243 7.5358 12.0869 7.12454 12.1941 6.72444C12.3013 6.32434 12.7126 6.08691 13.1127 6.19411C13.5128 6.30132 13.7502 6.71257 13.643 7.11267ZM17.643 10.1127C17.5358 10.5128 17.1245 10.7502 16.7244 10.643C16.3243 10.5358 16.0869 10.1245 16.1941 9.72444C16.3013 9.32434 16.7126 9.08691 17.1127 9.19411C17.5128 9.30132 17.7502 9.71257 17.643 10.1127Z" stroke="#C1C1C1" stroke-width="1.5" stroke-linejoin="round"/>
</svg>
