<svg width="17" height="17" viewBox="0 0 17 17" fill="none" xmlns="http://www.w3.org/2000/svg">
<path d="M4.27897 12.2275C7.37236 15.3209 11.4916 16.4606 14.5263 15.3451C15.8756 14.8491 15.9475 13.1499 15.0262 12.0463L14.2563 11.1241C13.6236 10.3663 12.4771 10.3148 11.7791 11.0128C11.2846 11.5073 10.535 11.6447 9.91779 11.3159C9.05488 10.8562 7.85234 10.1441 7.1074 9.39912C6.36246 8.65418 5.6503 7.45164 5.19063 6.58873C4.86183 5.97152 4.99919 5.22194 5.49369 4.72744C6.19169 4.02943 6.1402 2.88289 5.38244 2.25026L4.46026 1.48037C3.35667 0.559021 1.65745 0.630912 1.16144 1.98027C0.0459168 5.01495 1.18559 9.13416 4.27897 12.2275Z" stroke="#00D8A5"/>
</svg>
