<svg width="440" height="956" viewBox="0 0 440 956" fill="none" xmlns="http://www.w3.org/2000/svg">
<g clip-path="url(#clip0_105_776)">
<rect width="440" height="956" fill="black"/>
<path d="M440 0H0V956H440V0Z" fill="#054649" fill-opacity="0.25"/>
<g filter="url(#filter0_f_105_776)">
<path d="M297.245 984.68C476.528 984.68 621.867 826.79 621.867 632.022C621.867 437.255 476.528 279.364 297.245 279.364C117.961 279.364 -27.3777 437.255 -27.3777 632.022C-27.3777 826.79 117.961 984.68 297.245 984.68Z" fill="black"/>
<path d="M78.2223 513.053C257.506 513.053 402.845 355.163 402.845 160.395C402.845 -34.3724 257.506 -192.263 78.2223 -192.263C-101.062 -192.263 -246.4 -34.3724 -246.4 160.395C-246.4 355.163 -101.062 513.053 78.2223 513.053Z" fill="#054649" fill-opacity="0.25"/>
<path d="M399.911 1231.12C579.195 1231.12 724.534 1073.23 724.534 878.458C724.534 683.69 579.195 525.8 399.911 525.8C220.627 525.8 75.2891 683.69 75.2891 878.458C75.2891 1073.23 220.627 1231.12 399.911 1231.12Z" fill="black"/>
<path d="M421.422 856.151C600.706 856.151 746.044 698.26 746.044 503.493C746.044 308.725 600.706 150.835 421.422 150.835C242.138 150.835 96.8 308.725 96.8 503.493C96.8 698.26 242.138 856.151 421.422 856.151Z" fill="black"/>
<path d="M159.378 1130.2C338.662 1130.2 484 972.314 484 777.546C484 582.779 338.662 424.889 159.378 424.889C-19.9061 424.889 -165.244 582.779 -165.244 777.546C-165.244 972.314 -19.9061 1130.2 159.378 1130.2Z" fill="#054649" fill-opacity="0.25"/>
<path d="M124.178 917.76C303.462 917.76 448.8 759.87 448.8 565.102C448.8 370.335 303.462 212.444 124.178 212.444C-55.106 212.444 -200.444 370.335 -200.444 565.102C-200.444 759.87 -55.106 917.76 124.178 917.76Z" fill="black"/>
</g>
</g>
<defs>
<filter id="filter0_f_105_776" x="-544.4" y="-490.263" width="1588.44" height="2019.38" filterUnits="userSpaceOnUse" color-interpolation-filters="sRGB">
<feFlood flood-opacity="0" result="BackgroundImageFix"/>
<feBlend mode="normal" in="SourceGraphic" in2="BackgroundImageFix" result="shape"/>
<feGaussianBlur stdDeviation="149" result="effect1_foregroundBlur_105_776"/>
</filter>
<clipPath id="clip0_105_776">
<rect width="440" height="956" fill="white"/>
</clipPath>
</defs>
</svg>
