<svg width="24" height="24" viewBox="0 0 24 24" fill="none" xmlns="http://www.w3.org/2000/svg">
<path d="M15 18.2774C15.5933 17.9441 16 16.5 16.7798 16M10.5 3.50002C11.5 4.50002 13.5 5.00002 14.5 4M4 15.5C4.83333 15.3333 6.46435 15 7 16.6069C7.53565 18.2139 7.16667 18.6667 7 19M21 12C21 7.02944 16.9706 3 12 3C7.02944 3 3 7.02944 3 12C3 16.9706 7.02944 21 12 21C16.9706 21 21 16.9706 21 12ZM7.918 8.19133L7.45998 9.26006C6.93948 10.4746 7.5502 11.8765 8.79401 12.3224C9.5435 12.5912 10.1 13.2294 10.2642 14.0084L10.9584 17.3026C10.9859 17.433 11.038 17.557 11.1119 17.6679C11.531 18.2965 12.4572 18.2887 12.8658 17.6533L15.9118 12.915C16.2918 12.3238 16.4523 11.618 16.3651 10.9206L16.2969 10.3749C16.1232 8.98559 15.0117 7.90117 13.6185 7.76185L11.5441 7.55441C11.1923 7.51923 10.8632 7.36316 10.6131 7.1131C10.233 6.73295 9.68087 6.57978 9.15931 6.71017L8.76819 6.80795C8.31672 6.92082 8 7.32647 8 7.79183C8 7.92918 7.9721 8.06509 7.918 8.19133Z" stroke="#C1C1C1" stroke-width="1.5" stroke-linecap="round" stroke-linejoin="round"/>
</svg>
