<svg width="24" height="24" viewBox="0 0 24 24" fill="none" xmlns="http://www.w3.org/2000/svg">
<path d="M17 17.25C16.5858 17.25 16.25 17.5858 16.25 18C16.25 18.4142 16.5858 18.75 17 18.75V17.25ZM21 18.75C21.4142 18.75 21.75 18.4142 21.75 18C21.75 17.5858 21.4142 17.25 21 17.25V18.75ZM17.01 12.75C17.4242 12.75 17.76 12.4142 17.76 12C17.76 11.5858 17.4242 11.25 17.01 11.25V12.75ZM17 11.25C16.5858 11.25 16.25 11.5858 16.25 12C16.25 12.4142 16.5858 12.75 17 12.75V11.25ZM6 5.75H17V4.25H6V5.75ZM15 18.25H6V19.75H15V18.25ZM3.75 16V8H2.25V16H3.75ZM19.25 8V9.5H20.75V8H19.25ZM6 18.25C4.75736 18.25 3.75 17.2426 3.75 16H2.25C2.25 18.0711 3.92893 19.75 6 19.75V18.25ZM17 5.75C18.2426 5.75 19.25 6.75736 19.25 8H20.75C20.75 5.92893 19.0711 4.25 17 4.25V5.75ZM6 4.25C3.92893 4.25 2.25 5.92893 2.25 8H3.75C3.75 6.75736 4.75736 5.75 6 5.75V4.25ZM16.5 10.25H20V8.75H16.5V10.25ZM20 10.25H20.8627V8.75H20V10.25ZM20.25 9.63725V14.3627H21.75V9.63725H20.25ZM16.5 13.75C15.5335 13.75 14.75 12.9665 14.75 12H13.25C13.25 13.7949 14.7051 15.25 16.5 15.25V13.75ZM20.8627 10.25C20.5243 10.25 20.25 9.97566 20.25 9.63725H21.75C21.75 9.14724 21.3528 8.75 20.8627 8.75V10.25ZM16.5 8.75C14.7051 8.75 13.25 10.2051 13.25 12H14.75C14.75 11.0335 15.5335 10.25 16.5 10.25V8.75ZM17 18.75H21V17.25H17V18.75ZM17.01 11.25H17V12.75H17.01V11.25Z" fill="#2DC937"/>
</svg>
