<svg width="32" height="29" viewBox="0 0 32 29" fill="none" xmlns="http://www.w3.org/2000/svg">
<path d="M5.25002 12.417V26.0043C5.25002 27.099 6.33641 27.8761 7.38458 27.5603C9.71193 26.859 13.4845 25.8753 16.3334 25.8753C19.1822 25.8753 22.9548 26.859 25.2821 27.5603C26.3303 27.8761 27.4167 27.099 27.4167 26.0043V12.417M30.5834 10.8337V17.167M14.5064 2.09488L3.18841 6.81072C1.16163 7.65521 1.26783 10.5618 3.35083 11.2561L14.8313 15.083C15.8063 15.408 16.8604 15.408 17.8354 15.083L29.3159 11.2561C31.3989 10.5618 31.5051 7.65521 29.4783 6.81072L18.1603 2.09488C16.991 1.6077 15.6757 1.6077 14.5064 2.09488Z" stroke="white" stroke-opacity="0.5" stroke-width="2" stroke-linecap="round" stroke-linejoin="round"/>
</svg>
